<svg width="38" height="38" viewBox="0 0 38 38" fill="none" xmlns="http://www.w3.org/2000/svg">
<path d="M36.2172 1.7829C38.5942 4.16013 38.5943 8.01439 36.2172 10.3915L27.6086 19.0001L36.2172 27.6088C38.5942 29.986 38.5943 33.8403 36.2172 36.2174C33.84 38.5942 29.9857 38.5943 27.6086 36.2174L19 27.6088L10.3913 36.2174C8.01418 38.5942 4.15982 38.5943 1.78272 36.2174C-0.594362 33.8403 -0.594117 29.986 1.78272 27.6088L10.3913 19.0001L1.78272 10.3915C-0.594362 8.01444 -0.594116 4.16014 1.78272 1.7829C4.15992 -0.594301 8.01414 -0.594301 10.3913 1.7829L19 10.3915L27.6086 1.7829C29.9858 -0.594301 33.84 -0.594301 36.2172 1.7829Z" fill="#3B8AD5"/>
</svg>
